<svg width="80" height="80" viewBox="0 0 80 80" fill="none" xmlns="http://www.w3.org/2000/svg">
<path d="M56.0433 29.38C56.0433 29.38 54.5433 29.98 52.8 31.9C51.0533 33.8234 50.04 35.9834 50.79 36.5567C51.08 36.7767 51.7466 36.82 52.9566 35.7234C54.0669 34.7525 54.9403 33.5405 55.51 32.18C56.29 30.28 56.0433 29.4034 56.0433 29.38ZM65.5866 32.84C63.65 31.8434 62.2333 30.6267 60.76 29.8734C59.3533 29.1534 58.4433 28.85 57.3066 29.0034C57.1485 29.031 56.9925 29.07 56.84 29.12C56.84 29.12 57.4266 31.12 55.0966 34.4767C52.7366 37.8834 50.5966 37.86 49.9866 36.9234C49.35 35.9367 50.1733 33.9234 51.5466 32.1334C52.9866 30.26 55.5133 28.7067 55.5133 28.7067C55.5133 28.7067 54.71 28.2134 52.73 29.34C50.7966 30.4267 47.4733 33.03 44.39 37.4167C41.3033 41.8034 40.69 44.2167 40.25 46.1167C39.81 48.0167 40.21 50.05 42.3166 50.05C44.4233 50.05 46.8766 46.8367 47.57 45.72C48.8566 43.64 49.6933 40.45 47.9433 40.8867C47.08 41.1034 46.3833 42.0567 45.9433 42.9767C45.6659 43.5675 45.4535 44.1867 45.31 44.8234C44.6977 45.0757 44.1225 45.4099 43.6 45.8167C43.022 46.2498 42.4803 46.7292 41.98 47.25C41.98 47.25 41.9866 45.73 43.1966 43.27C44.41 40.8134 46.63 39.69 47.89 39.5834C49.0233 39.4934 50.5 40.4567 49.25 44.0067C48 47.5567 44.3066 51.8734 40.43 51.9267C36.8533 51.9767 34.51 47.41 39.49 39.4434C45.0033 30.6334 51.47 27.9334 53.5666 27.6334C55.6666 27.3334 56.35 28.2567 56.35 28.2567C57.6129 27.738 58.9774 27.5134 60.34 27.6C62.9066 27.7734 64.8866 29.5867 67.5066 30.8634C66.8233 31.5134 66.1733 32.1967 65.59 32.8367M77.1033 29.87C75.3266 31.01 72.87 32.0434 70.5066 31.8234C69.91 32.44 69.27 33.1567 68.63 33.9367C72.7233 34.7467 76.3133 32.2067 78.22 30.0467C78.916 29.272 79.5139 28.4144 80 27.4934C79.131 28.3975 78.1588 29.193 77.1033 29.87ZM71.65 41.4134C71.6808 41.3592 71.7064 41.3023 71.7266 41.2434C71.7147 41.1492 71.6708 41.0621 71.6022 40.9965C71.5336 40.931 71.4445 40.891 71.35 40.8834C70.96 40.8667 70.4266 40.94 69.0333 42.4834C67.8754 43.7597 66.879 45.1736 66.0666 46.6934C65.2666 48.1534 64.9433 49.24 65.4 49.52C65.55 49.5978 65.7239 49.6156 65.8866 49.57C66.1966 49.4967 66.55 49.2034 67.0866 48.5867C67.3366 48.2934 67.6133 47.88 67.9466 47.4234C68.87 46.17 71.19 42.2134 71.65 41.4134ZM57.1533 43.0934C57.3866 42.4867 57.6833 41.29 57.0666 40.82C56.4033 40.32 54.7166 41.49 54.7066 42.69C54.6966 43.92 55.8966 44.4734 56.1833 44.5534C56.35 44.5967 56.4033 44.5867 56.4833 44.4567C56.7409 44.0199 56.9649 43.5641 57.1533 43.0934ZM55.8766 45.3267C55.4577 45.1347 55.0674 44.8856 54.7166 44.5867C54.3641 44.2919 54.0701 43.9335 53.85 43.53C53.8233 43.49 53.8 43.52 53.7733 43.5567C53.75 43.59 53.6433 43.6867 52.7433 45.0034C51.8433 46.3234 50.4633 49.0567 51.71 49.52C52.5133 49.82 53.8466 48.4167 54.5766 47.4867C55.0728 46.8382 55.5207 46.1542 55.9166 45.44C55.9566 45.3634 55.9166 45.3434 55.8766 45.3267ZM70.07 48.4834C69.73 49.0267 69.3433 50.07 70.46 49.42C71.8266 48.6334 73.7733 45.6767 73.7733 45.6767H74.6566C73.852 46.912 72.9573 48.0863 71.98 49.19C70.5966 50.7234 68.9066 52.12 67.7133 51.98C66.3266 51.82 66.76 49.9934 66.76 49.9934C66.76 49.9934 64.7733 52.11 63.3933 51.96C61.5366 51.7534 62.1033 49.4567 62.1033 49.4567C62.1033 49.4567 60.0033 52.0367 58.57 51.9567C56.3266 51.8234 56.89 49.0934 57.5166 47.17C57.85 46.1434 58.16 45.3367 58.16 45.3367C58.16 45.3367 57.9366 45.3934 57.46 45.4634C57.2066 45.5 56.7533 45.5267 56.7533 45.5267C56.7533 45.5267 55.82 47.1767 55.07 48.1667C54.32 49.1567 51.1433 52.5734 49.27 51.89C47.5433 51.2567 48.1166 48.61 49.1233 46.5067C50.59 43.44 54.7233 39.03 57.11 39.6134C59.58 40.2134 57.1666 44.72 57.1666 44.72C57.1666 44.72 57.1666 44.7367 57.19 44.75C57.24 44.7667 57.37 44.7834 57.6666 44.7234C57.975 44.6613 58.2773 44.5721 58.57 44.4567C58.57 44.4567 61.0566 39.2534 63.8 35.8467C66.5433 32.4467 72.0166 26.58 74.1666 28C74.6866 28.35 74.4533 29.55 73.7466 31.0067C73.4279 31.1096 73.1041 31.1963 72.7766 31.2667C73.25 30.4067 73.5633 29.6834 73.6566 29.1767C73.98 27.4167 69.8733 31.1267 66.94 35.11C65.1721 37.5126 63.6014 40.0542 62.2433 42.71C62.7723 42.3857 63.2779 42.0248 63.7566 41.63C65.066 40.5453 66.3104 39.3844 67.4833 38.1534C68.6129 36.9985 69.6715 35.7763 70.6533 34.4934C70.9658 34.4758 71.2772 34.4435 71.5866 34.3967C70.5147 35.852 69.3453 37.2329 68.0866 38.53C66.92 39.7134 65.6533 40.9867 64.55 41.9134C63.5661 42.747 62.5295 43.5164 61.4466 44.2167C61.4466 44.2167 58.88 49.3934 60.2766 49.7234C61.0966 49.9234 62.7166 47.4234 62.7166 47.4234C62.7166 47.4234 64.8333 44.2 66.1066 42.7434C67.8466 40.7667 69.34 39.6234 70.84 39.6034C71.71 39.5867 72.2233 40.5134 72.2233 40.5134L72.6333 39.88H75.1566C75.1566 39.88 70.4433 47.8734 70.0666 48.4767M77.1033 29.8767C75.3266 31.0134 72.87 32.0467 70.5066 31.8267C69.9066 32.4434 69.27 33.16 68.6266 33.94C72.7233 34.75 76.31 32.2134 78.22 30.05C78.9162 29.2743 79.5141 28.4156 80 27.4934C79.131 28.3975 78.1588 29.193 77.1033 29.87M41.67 33.7967H39.27L37.9133 35.99H40.3133L41.67 33.7967ZM30.3033 41.3867C31.3266 39.9867 34.1433 35.0834 34.1433 35.0834C34.1315 34.9898 34.088 34.903 34.0201 34.8375C33.9522 34.772 33.8639 34.7318 33.77 34.7234C33.38 34.7034 32.73 34.8367 31.4366 36.4534C30.1433 38.07 29.1433 39.3534 28.4133 40.6934C27.6133 42.1534 27.26 43.1834 27.7233 43.4634C27.8714 43.5394 28.0427 43.5572 28.2033 43.5134C28.5033 43.44 28.8966 43.1367 29.4333 42.52C29.7378 42.1528 30.0291 41.7748 30.3066 41.3867M17.43 34.7534C16.7666 34.2534 15.08 35.4234 15.07 36.62C15.06 37.85 16.59 38.2267 16.7866 38.2334C16.8441 38.2368 16.9016 38.2254 16.9533 38.2C16.9886 38.179 17.0165 38.1475 17.0333 38.11C17.2115 37.7563 17.3739 37.3949 17.52 37.0267C17.7533 36.4167 18.0466 35.2234 17.43 34.7534ZM16.43 38.9867C15.973 38.8425 15.5362 38.6409 15.13 38.3867C14.7345 38.1315 14.4136 37.7761 14.2 37.3567C14.1766 37.3167 14.15 37.3467 14.1266 37.3834C14.1033 37.42 13.97 37.5867 13.0666 38.91C12.1666 40.2367 10.8266 42.9434 12.08 43.41C12.88 43.71 14.2266 42.2967 14.96 41.37C15.5094 40.6436 16.0158 39.8856 16.4766 39.1C16.5066 39.02 16.4766 39 16.43 38.9867ZM36.03 39.8H36.9066C36.9066 39.8 32.5033 46.1734 30.0133 45.8767C28.6266 45.7134 29.0366 44 29.0366 44C29.0366 44 27.0866 46.2834 25.2933 45.82C23.67 45.4034 24.72 42.7 24.72 42.7C24.5333 42.7734 21.0166 46.7367 18.5433 45.7867C15.9566 44.7867 17.3 41.4667 17.7933 40.47C18.21 39.6267 18.67 38.8067 18.67 38.8067C18.67 38.8067 18.2733 38.92 18.02 38.9767L17.4 39.11C17.4 39.11 16.1766 41.0967 15.43 42.09C14.68 43.08 11.5033 46.49 9.62998 45.8134C7.75664 45.1367 8.21998 42.5134 9.27331 40.43C10.98 37.0567 15.0266 32.91 17.4666 33.5367C19.93 34.1667 17.89 38.1634 17.89 38.1634C17.89 38.1634 18.38 38.2267 19.5566 37.4234C21.2466 36.27 23.4766 33.1667 25.8933 33.5334C27.0333 33.7034 28.0933 34.8667 26.6433 37.08C26.18 37.79 25.4033 38.4234 24.81 37.7967C24.44 37.4034 24.7633 36.6967 25.1533 36.2067C25.3052 36.0091 25.5029 35.8515 25.7295 35.7475C25.956 35.6435 26.2044 35.5963 26.4533 35.61C26.4533 35.61 26.8533 34.7 25.8366 34.7134C25.0133 34.73 22.9333 36.6467 21.76 38.58C20.6833 40.3567 19.05 43.3834 20.6866 44.0434C22.19 44.65 25.05 41.2567 26.3733 39.4767C27.6966 37.7 30.7133 33.67 33.2466 33.51C34.1166 33.4534 34.6366 34.2467 34.6366 34.2467L34.93 33.7834H37.46C37.46 33.7834 32.6933 41.74 32.32 42.34C32.0266 42.81 31.64 43.8734 32.71 43.2767C33.7833 42.6834 36.03 39.8 36.03 39.8ZM34.65 52.5467C32.787 51.2554 30.5551 50.6039 28.29 50.69C27.6776 50.7069 27.0779 50.8678 26.5393 51.1597C26.0007 51.4516 25.5384 51.8662 25.19 52.37C24.2233 50.6867 22.3166 49.6534 19.3666 49.6767C14.6 49.73 9.86998 51.93 6.12664 51.9267C2.53664 51.9267 -0.0833575 49.67 0.00330917 45.66C0.159976 38.63 6.10331 32.2967 10.5366 29.4467C13.0933 27.8134 15.2333 27.3234 16.63 27.48C17.65 27.5934 18.8766 28.7734 18.1033 30.51C16.9666 33.0467 15.3966 32.84 15.4533 31.6267C15.4866 30.8367 16.0133 30.34 16.4066 30.0634C16.6927 29.9142 17.0107 29.8364 17.3333 29.8367C17.56 29.6467 17.7233 28.2567 15.9033 28.7134C14.0833 29.17 11.87 30.9667 9.76998 33.2834C7.66998 35.6034 4.40331 39.9867 3.59664 44.59C3.21998 46.7234 3.46664 50.6167 8.52997 50.5734C12.82 50.54 19.1466 47.71 24.96 47.77C26.984 47.762 28.972 48.306 30.71 49.3434C32.2133 50.27 34.0166 51.6234 34.6566 52.5467" fill="#B3B3B3"/>
</svg>
