<svg width="80" height="80" viewBox="0 0 80 80" fill="none" xmlns="http://www.w3.org/2000/svg">
<path d="M75.9566 50.9732C74.8366 49.5399 68.5499 50.2932 65.7266 50.6299C64.8699 50.7332 64.7399 49.9866 65.5099 49.4432C70.5232 45.9232 78.7366 46.9432 79.6932 48.1199C80.6532 49.3099 79.4399 57.5432 74.7432 61.4766C74.0199 62.0766 73.3332 61.7566 73.6532 60.9599C74.7099 58.3199 77.0766 52.4066 75.9532 50.9732M72.3099 55.1332C63.5532 61.5999 50.8532 65.0332 39.9199 65.0332C24.5966 65.0332 10.7966 59.3666 0.353228 49.9399C-0.466772 49.1999 0.266561 48.1899 1.25323 48.7632C12.5199 55.3199 26.4499 59.2666 40.8399 59.2666C51.2156 59.2183 61.4793 57.118 71.0399 53.0866C72.5199 52.4599 73.7599 54.0632 72.3099 55.1332ZM73.9166 38.3399C71.3788 38.3399 69.4288 37.6443 68.0666 36.2532C66.7043 34.8599 66.0232 32.8632 66.0232 30.2632C66.0232 27.601 66.7199 25.5121 68.1132 23.9966C69.5066 22.481 71.441 21.7232 73.9166 21.7232C75.8232 21.7232 77.3132 22.1843 78.3866 23.1066C79.4621 24.0266 79.9999 25.2543 79.9999 26.7899C79.9999 28.3254 79.4221 29.4877 78.2666 30.2766C77.1066 31.0654 75.401 31.4599 73.1499 31.4599C71.9832 31.4599 70.9699 31.3477 70.1099 31.1232C70.2321 32.4943 70.6466 33.4766 71.3532 34.0699C72.0599 34.6654 73.1299 34.9632 74.5632 34.9632C75.1388 34.9632 75.6966 34.9266 76.2366 34.8532C77.0611 34.7299 77.8772 34.5551 78.6799 34.3299L78.8332 34.3166C79.1799 34.3166 79.3532 34.5521 79.3532 35.0232V36.4366C79.3532 36.7632 79.3088 36.9932 79.2199 37.1266C79.0779 37.2942 78.8903 37.4169 78.6799 37.4799C77.1579 38.0548 75.5435 38.3462 73.9166 38.3399ZM72.9032 28.6966C73.9477 28.6966 74.7054 28.5377 75.1766 28.2199C75.6477 27.9021 75.8832 27.4154 75.8832 26.7599C75.8832 25.471 75.1166 24.8266 73.5832 24.8266C71.6166 24.8266 70.4788 26.0343 70.1699 28.4499C70.9921 28.6166 71.9032 28.6988 72.9032 28.6966ZM40.1032 37.8799C39.8366 37.8799 39.641 37.8188 39.5166 37.6966C39.3943 37.5721 39.3332 37.3777 39.3332 37.1132V22.9532C39.3332 22.6666 39.3943 22.4666 39.5166 22.3532C39.641 22.2421 39.8366 22.1866 40.1032 22.1866H42.3132C42.7843 22.1866 43.071 22.411 43.1732 22.8599L43.4199 23.6899C44.5043 22.9743 45.4821 22.4677 46.3532 22.1699C47.2221 21.8699 48.1177 21.721 49.0399 21.7232C50.8843 21.7232 52.1843 22.3788 52.9399 23.6899C53.853 23.0607 54.8448 22.5541 55.8899 22.1832C56.8099 21.8766 57.7621 21.7232 58.7466 21.7232C60.1799 21.7232 61.291 22.1232 62.0799 22.9232C62.8666 23.721 63.2599 24.8366 63.2599 26.2699V37.1132C63.2599 37.3799 63.2043 37.5743 63.0932 37.6966C62.9821 37.8188 62.7821 37.8799 62.4932 37.8799H59.5432C59.2766 37.8799 59.0821 37.8188 58.9599 37.6966C58.8377 37.5721 58.7766 37.3777 58.7766 37.1132V27.2532C58.7766 25.8599 58.1521 25.1632 56.9032 25.1632C55.7966 25.1632 54.6799 25.4299 53.5532 25.9632V37.1132C53.5532 37.3799 53.4977 37.5743 53.3866 37.6966C53.2755 37.8188 53.0754 37.8799 52.7866 37.8799H49.8399C49.5732 37.8799 49.3777 37.8188 49.2532 37.6966C49.1332 37.5721 49.0721 37.3777 49.0699 37.1132V27.2532C49.0699 25.8599 48.4454 25.1632 47.1966 25.1632C46.0499 25.1632 44.9243 25.4399 43.8199 25.9932V37.1132C43.8199 37.3799 43.7632 37.5743 43.6499 37.6966C43.5366 37.8188 43.3366 37.8799 43.0499 37.8799H40.1032ZM33.2899 19.7566C32.5121 19.7566 31.8877 19.5421 31.4166 19.1132C30.9454 18.6821 30.7099 18.0988 30.7099 17.3632C30.7099 16.6254 30.9454 16.041 31.4166 15.6099C31.8854 15.181 32.5099 14.9666 33.2899 14.9666C34.0677 14.9666 34.6921 15.181 35.1632 15.6099C35.4003 15.8341 35.5861 16.1068 35.7081 16.4094C35.83 16.712 35.8852 17.0373 35.8699 17.3632C35.8699 18.0966 35.6343 18.6799 35.1632 19.1132C34.6921 19.5421 34.0677 19.7566 33.2899 19.7566ZM31.8132 37.8799C31.5466 37.8799 31.3521 37.8188 31.2299 37.6966C31.1077 37.5721 31.0466 37.3766 31.0466 37.1099V22.9532C31.0466 22.6666 31.1077 22.4666 31.2299 22.3532C31.3543 22.2421 31.5488 22.1866 31.8132 22.1866H34.7632C35.0499 22.1866 35.2499 22.2421 35.3632 22.3532C35.5332 22.5199 35.5299 22.6666 35.5299 22.9532V37.1099C35.5299 37.3766 35.4743 37.5721 35.3632 37.6966C35.2521 37.821 35.0521 37.8821 34.7632 37.8799H31.8132ZM19.5432 37.8799C19.2766 37.8799 19.081 37.8188 18.9566 37.6966C18.8366 37.5721 18.7754 37.3777 18.7732 37.1132V22.9532C18.7732 22.6666 18.8343 22.4666 18.9566 22.3532C19.081 22.2421 19.2766 22.1866 19.5432 22.1866H21.7532C22.2243 22.1866 22.511 22.411 22.6132 22.8599L23.0132 24.5166C23.831 23.6166 24.6032 22.9777 25.3299 22.5999C26.0588 22.2221 26.8321 22.0332 27.6499 22.0332H28.0832C28.3677 22.0332 28.571 22.0888 28.6932 22.1999C28.8177 22.3132 28.8799 22.5132 28.8799 22.7999V25.3766C28.8799 25.6432 28.8232 25.8388 28.7099 25.9632C28.5966 26.0832 28.3966 26.1443 28.1099 26.1466C27.9251 26.1431 27.7405 26.132 27.5566 26.1132C27.2705 26.0909 26.9835 26.0809 26.6966 26.0832C26.2299 26.0832 25.6566 26.1499 24.9766 26.2832C24.3032 26.4166 23.731 26.5854 23.2599 26.7899V37.1132C23.2599 37.3799 23.2032 37.5743 23.0899 37.6966C22.9766 37.8188 22.7766 37.8799 22.4899 37.8799H19.5432ZM1.14656 44.2066C0.879895 44.2066 0.68545 44.151 0.563228 44.0399C0.441006 43.9243 0.379895 43.7243 0.379895 43.4399V22.9532C0.379895 22.6666 0.441006 22.4666 0.563228 22.3532C0.68545 22.2399 0.879895 22.1843 1.14656 22.1866H3.35989C3.82656 22.1866 4.11323 22.411 4.21989 22.8599L4.43323 23.6599C5.07393 23.0452 5.83096 22.5647 6.65989 22.2466C7.50295 21.9009 8.40539 21.7231 9.31656 21.7232C11.3032 21.7232 12.8743 22.4499 14.0299 23.9032C15.1877 25.3588 15.7666 27.3254 15.7666 29.8032C15.7666 31.5032 15.4799 32.9877 14.9066 34.2566C14.3332 35.5232 13.5555 36.501 12.5732 37.1899C11.5817 37.8773 10.3996 38.2363 9.19323 38.2166C8.35545 38.2166 7.55656 38.0832 6.79656 37.8166C6.08551 37.5802 5.42839 37.2052 4.86323 36.7132V43.4399C4.86323 43.7243 4.80767 43.9243 4.69656 44.0399C4.58101 44.151 4.38101 44.2066 4.09656 44.2066H1.14656ZM7.87323 34.8399C9.01989 34.8399 9.86434 34.451 10.4066 33.6732C10.951 32.8932 11.2232 31.6643 11.2232 29.9866C11.2232 28.2866 10.9566 27.0477 10.4232 26.2699C9.88989 25.4921 9.03989 25.1032 7.87323 25.1032C6.80656 25.1032 5.80323 25.3788 4.86323 25.9299V34.0099C5.76323 34.5632 6.76656 34.8399 7.87323 34.8399Z" fill="#B3B3B3"/>
</svg>
