<svg width="80" height="80" viewBox="0 0 80 80" fill="none" xmlns="http://www.w3.org/2000/svg">
<path d="M15.8332 47.9668C14.8332 48.1468 13.8098 48.2001 12.7532 48.3434L9.53317 38.7668V48.7534C8.53317 48.8634 7.6165 49.0068 6.6665 49.1501V30.8501H9.33984L12.9998 41.2334V30.8501H15.8332V47.9668ZM21.3765 37.5501C22.4665 37.5501 24.1398 37.4968 25.1432 37.4968V40.3568C23.8932 40.3568 22.4298 40.3568 21.3765 40.4101V44.6634C23.0298 44.5568 24.6832 44.4134 26.3565 44.3601V47.1101L18.5598 47.7368V30.8501H26.3565V33.7101H21.3765V37.5501ZM36.8232 33.7101H33.9032V46.8601C32.9532 46.8601 32.0032 46.8601 31.0898 46.8968V33.7101H28.1665V30.8501H36.8232V33.7101ZM41.3998 37.3534H45.2532V40.2134H41.3998V46.7001H38.6332V30.8501H46.4998V33.7101H41.3998V37.3534ZM51.0765 44.1968C52.6765 44.2334 54.2965 44.3601 55.8632 44.4468V47.2734C53.3328 47.0933 50.7989 46.9677 48.2632 46.8968V30.8501H51.0765V44.1968ZM58.2365 47.4701C59.1365 47.5234 60.0832 47.5768 60.9998 47.6834V30.8501H58.2365V47.4701ZM73.3332 30.8501L69.7598 39.5501L73.3332 49.1534C72.2765 49.0101 71.2232 48.8134 70.1665 48.6334L68.1432 43.3434L66.0832 48.2034C65.0632 48.0268 64.0798 47.9701 63.0598 47.8301L66.6832 39.4501L63.4098 30.8501H66.4365L68.2832 35.6601L70.2532 30.8534L73.3332 30.8501Z" fill="#B3B3B3"/>
</svg>
