<svg width="80" height="80" viewBox="0 0 80 80" fill="none" xmlns="http://www.w3.org/2000/svg">
<path d="M60.0166 13.4668C59.7185 13.2375 59.4336 12.9915 59.1632 12.7301C53.5573 8.77615 46.8633 6.65777 40.0032 6.66678C21.6032 6.66678 6.68656 21.5901 6.68656 40.0001C6.67597 47.1737 8.98919 54.1578 13.2799 59.9068C24.3203 56.6949 34.3695 50.7438 42.4932 42.6068C50.7073 34.5351 56.7369 24.5062 60.0166 13.4668Z" fill="#B3B3B3"/>
<path d="M40.0068 73.3332C58.4068 73.3332 73.3234 58.4066 73.3234 39.9999C73.3338 33.7277 71.5654 27.581 68.2234 22.2732C68.137 22.1896 68.0599 22.0968 67.9934 21.9966C68.6724 24.2336 69.0161 26.5588 69.0134 28.8966C69.018 32.6233 68.1299 36.2969 66.4234 39.6099C64.7234 42.7923 62.3369 45.5568 59.4368 47.7032C57.1068 49.4199 54.3134 50.8766 51.0234 52.0699C48.4034 53.0266 44.9968 54.0199 40.7768 54.9766L28.6101 57.7166C23.8698 58.7932 19.171 60.0451 14.5234 61.4699C17.6463 65.1892 21.5463 68.1789 25.9491 70.2285C30.3518 72.2781 35.1503 73.3379 40.0068 73.3332Z" fill="#B3B3B3"/>
</svg>
